ISO-10303-21;
HEADER;
/* Generated by software containing ST-Developer
 * from STEP Tools, Inc. (www.steptools.com) 
 */

FILE_DESCRIPTION(
/* description */ (''),
/* implementation_level */ '2;1');

FILE_NAME(
/* name */ 'BottomDMXInterface.step',
/* time_stamp */ '2026-08-04T16:40:18+02:00',
/* author */ (''),
/* organization */ (''),
/* preprocessor_version */ 'ST-DEVELOPER v20.1',
/* originating_system */ 'Autodesk Translation Framework v15.8.0.0',
/* authorisation */ '');

FILE_SCHEMA (('AUTOMOTIVE_DESIGN { 1 0 10303 214 3 1 1 }'));
ENDSEC;

DATA;
#10=MECHANICAL_DESIGN_GEOMETRIC_PRESENTATION_REPRESENTATION('',(#13),#483);
#11=SHAPE_REPRESENTATION_RELATIONSHIP('SRR','None',#490,#12);
#12=ADVANCED_BREP_SHAPE_REPRESENTATION('',(#14),#482);
#13=STYLED_ITEM('',(#499),#14);
#14=MANIFOLD_SOLID_BREP('Corps1',#287);
#15=FACE_BOUND('',#55,.T.);
#16=FACE_BOUND('',#58,.T.);
#17=FACE_BOUND('',#66,.T.);
#18=PLANE('',#313);
#19=PLANE('',#314);
#20=PLANE('',#315);
#21=PLANE('',#316);
#22=PLANE('',#317);
#23=PLANE('',#318);
#24=PLANE('',#319);
#25=PLANE('',#320);
#26=PLANE('',#321);
#27=PLANE('',#322);
#28=PLANE('',#323);
#29=CYLINDRICAL_SURFACE('',#306,2.117);
#30=CYLINDRICAL_SURFACE('',#312,2.117);
#31=FACE_OUTER_BOUND('',#48,.T.);
#32=FACE_OUTER_BOUND('',#49,.T.);
#33=FACE_OUTER_BOUND('',#50,.T.);
#34=FACE_OUTER_BOUND('',#51,.T.);
#35=FACE_OUTER_BOUND('',#52,.T.);
#36=FACE_OUTER_BOUND('',#53,.T.);
#37=FACE_OUTER_BOUND('',#54,.T.);
#38=FACE_OUTER_BOUND('',#56,.T.);
#39=FACE_OUTER_BOUND('',#57,.T.);
#40=FACE_OUTER_BOUND('',#59,.T.);
#41=FACE_OUTER_BOUND('',#60,.T.);
#42=FACE_OUTER_BOUND('',#61,.T.);
#43=FACE_OUTER_BOUND('',#62,.T.);
#44=FACE_OUTER_BOUND('',#63,.T.);
#45=FACE_OUTER_BOUND('',#64,.T.);
#46=FACE_OUTER_BOUND('',#65,.T.);
#47=FACE_OUTER_BOUND('',#67,.T.);
#48=EDGE_LOOP('',(#194,#195,#196));
#49=EDGE_LOOP('',(#197,#198,#199,#200));
#50=EDGE_LOOP('',(#201,#202,#203,#204));
#51=EDGE_LOOP('',(#205,#206,#207));
#52=EDGE_LOOP('',(#208,#209,#210,#211));
#53=EDGE_LOOP('',(#212,#213,#214,#215));
#54=EDGE_LOOP('',(#216,#217,#218,#219));
#55=EDGE_LOOP('',(#220));
#56=EDGE_LOOP('',(#221,#222,#223,#224));
#57=EDGE_LOOP('',(#225,#226,#227,#228));
#58=EDGE_LOOP('',(#229));
#59=EDGE_LOOP('',(#230,#231,#232,#233));
#60=EDGE_LOOP('',(#234,#235,#236,#237));
#61=EDGE_LOOP('',(#238,#239,#240,#241));
#62=EDGE_LOOP('',(#242,#243,#244,#245));
#63=EDGE_LOOP('',(#246,#247,#248,#249));
#64=EDGE_LOOP('',(#250,#251,#252,#253));
#65=EDGE_LOOP('',(#254,#255,#256,#257));
#66=EDGE_LOOP('',(#258,#259,#260,#261));
#67=EDGE_LOOP('',(#262,#263,#264,#265));
#68=LINE('',#407,#98);
#69=LINE('',#412,#99);
#70=LINE('',#415,#100);
#71=LINE('',#420,#101);
#72=LINE('',#425,#102);
#73=LINE('',#428,#103);
#74=LINE('',#432,#104);
#75=LINE('',#434,#105);
#76=LINE('',#436,#106);
#77=LINE('',#437,#107);
#78=LINE('',#440,#108);
#79=LINE('',#442,#109);
#80=LINE('',#443,#110);
#81=LINE('',#446,#111);
#82=LINE('',#448,#112);
#83=LINE('',#449,#113);
#84=LINE('',#451,#114);
#85=LINE('',#452,#115);
#86=LINE('',#457,#116);
#87=LINE('',#459,#117);
#88=LINE('',#461,#118);
#89=LINE('',#462,#119);
#90=LINE('',#465,#120);
#91=LINE('',#467,#121);
#92=LINE('',#468,#122);
#93=LINE('',#471,#123);
#94=LINE('',#473,#124);
#95=LINE('',#474,#125);
#96=LINE('',#476,#126);
#97=LINE('',#477,#127);
#98=VECTOR('',#330,1.0585);
#99=VECTOR('',#335,2.5585);
#100=VECTOR('',#340,2.117);
#101=VECTOR('',#345,1.0585);
#102=VECTOR('',#350,2.5585);
#103=VECTOR('',#355,2.117);
#104=VECTOR('',#358,10.);
#105=VECTOR('',#359,10.);
#106=VECTOR('',#360,10.);
#107=VECTOR('',#361,10.);
#108=VECTOR('',#364,10.);
#109=VECTOR('',#365,10.);
#110=VECTOR('',#366,10.);
#111=VECTOR('',#369,10.);
#112=VECTOR('',#370,10.);
#113=VECTOR('',#371,10.);
#114=VECTOR('',#374,10.);
#115=VECTOR('',#375,10.);
#116=VECTOR('',#380,10.);
#117=VECTOR('',#381,10.);
#118=VECTOR('',#382,10.);
#119=VECTOR('',#383,10.);
#120=VECTOR('',#386,10.);
#121=VECTOR('',#387,10.);
#122=VECTOR('',#388,10.);
#123=VECTOR('',#391,10.);
#124=VECTOR('',#392,10.);
#125=VECTOR('',#393,10.);
#126=VECTOR('',#396,10.);
#127=VECTOR('',#397,10.);
#128=CIRCLE('',#302,2.117);
#129=CIRCLE('',#304,3.);
#130=CIRCLE('',#305,2.117);
#131=CIRCLE('',#308,2.117);
#132=CIRCLE('',#310,3.);
#133=CIRCLE('',#311,2.117);
#134=VERTEX_POINT('',#404);
#135=VERTEX_POINT('',#406);
#136=VERTEX_POINT('',#409);
#137=VERTEX_POINT('',#411);
#138=VERTEX_POINT('',#417);
#139=VERTEX_POINT('',#419);
#140=VERTEX_POINT('',#422);
#141=VERTEX_POINT('',#424);
#142=VERTEX_POINT('',#430);
#143=VERTEX_POINT('',#431);
#144=VERTEX_POINT('',#433);
#145=VERTEX_POINT('',#435);
#146=VERTEX_POINT('',#439);
#147=VERTEX_POINT('',#441);
#148=VERTEX_POINT('',#445);
#149=VERTEX_POINT('',#447);
#150=VERTEX_POINT('',#455);
#151=VERTEX_POINT('',#456);
#152=VERTEX_POINT('',#458);
#153=VERTEX_POINT('',#460);
#154=VERTEX_POINT('',#464);
#155=VERTEX_POINT('',#466);
#156=VERTEX_POINT('',#470);
#157=VERTEX_POINT('',#472);
#158=EDGE_CURVE('',#134,#134,#128,.T.);
#159=EDGE_CURVE('',#134,#135,#68,.T.);
#160=EDGE_CURVE('',#136,#136,#129,.T.);
#161=EDGE_CURVE('',#136,#137,#69,.T.);
#162=EDGE_CURVE('',#137,#137,#130,.T.);
#163=EDGE_CURVE('',#137,#134,#70,.T.);
#164=EDGE_CURVE('',#138,#138,#131,.T.);
#165=EDGE_CURVE('',#138,#139,#71,.T.);
#166=EDGE_CURVE('',#140,#140,#132,.T.);
#167=EDGE_CURVE('',#140,#141,#72,.T.);
#168=EDGE_CURVE('',#141,#141,#133,.T.);
#169=EDGE_CURVE('',#141,#138,#73,.T.);
#170=EDGE_CURVE('',#142,#143,#74,.T.);
#171=EDGE_CURVE('',#142,#144,#75,.T.);
#172=EDGE_CURVE('',#145,#144,#76,.T.);
#173=EDGE_CURVE('',#143,#145,#77,.T.);
#174=EDGE_CURVE('',#143,#146,#78,.T.);
#175=EDGE_CURVE('',#147,#145,#79,.T.);
#176=EDGE_CURVE('',#146,#147,#80,.T.);
#177=EDGE_CURVE('',#146,#148,#81,.T.);
#178=EDGE_CURVE('',#149,#147,#82,.T.);
#179=EDGE_CURVE('',#148,#149,#83,.T.);
#180=EDGE_CURVE('',#148,#142,#84,.T.);
#181=EDGE_CURVE('',#144,#149,#85,.T.);
#182=EDGE_CURVE('',#150,#151,#86,.T.);
#183=EDGE_CURVE('',#151,#152,#87,.T.);
#184=EDGE_CURVE('',#153,#152,#88,.T.);
#185=EDGE_CURVE('',#150,#153,#89,.T.);
#186=EDGE_CURVE('',#154,#150,#90,.T.);
#187=EDGE_CURVE('',#155,#153,#91,.T.);
#188=EDGE_CURVE('',#154,#155,#92,.T.);
#189=EDGE_CURVE('',#156,#154,#93,.T.);
#190=EDGE_CURVE('',#157,#155,#94,.T.);
#191=EDGE_CURVE('',#156,#157,#95,.T.);
#192=EDGE_CURVE('',#151,#156,#96,.T.);
#193=EDGE_CURVE('',#152,#157,#97,.T.);
#194=ORIENTED_EDGE('',*,*,#158,.F.);
#195=ORIENTED_EDGE('',*,*,#159,.T.);
#196=ORIENTED_EDGE('',*,*,#159,.F.);
#197=ORIENTED_EDGE('',*,*,#160,.F.);
#198=ORIENTED_EDGE('',*,*,#161,.T.);
#199=ORIENTED_EDGE('',*,*,#162,.T.);
#200=ORIENTED_EDGE('',*,*,#161,.F.);
#201=ORIENTED_EDGE('',*,*,#162,.F.);
#202=ORIENTED_EDGE('',*,*,#163,.T.);
#203=ORIENTED_EDGE('',*,*,#158,.T.);
#204=ORIENTED_EDGE('',*,*,#163,.F.);
#205=ORIENTED_EDGE('',*,*,#164,.F.);
#206=ORIENTED_EDGE('',*,*,#165,.T.);
#207=ORIENTED_EDGE('',*,*,#165,.F.);
#208=ORIENTED_EDGE('',*,*,#166,.F.);
#209=ORIENTED_EDGE('',*,*,#167,.T.);
#210=ORIENTED_EDGE('',*,*,#168,.T.);
#211=ORIENTED_EDGE('',*,*,#167,.F.);
#212=ORIENTED_EDGE('',*,*,#168,.F.);
#213=ORIENTED_EDGE('',*,*,#169,.T.);
#214=ORIENTED_EDGE('',*,*,#164,.T.);
#215=ORIENTED_EDGE('',*,*,#169,.F.);
#216=ORIENTED_EDGE('',*,*,#170,.F.);
#217=ORIENTED_EDGE('',*,*,#171,.T.);
#218=ORIENTED_EDGE('',*,*,#172,.F.);
#219=ORIENTED_EDGE('',*,*,#173,.F.);
#220=ORIENTED_EDGE('',*,*,#160,.T.);
#221=ORIENTED_EDGE('',*,*,#174,.F.);
#222=ORIENTED_EDGE('',*,*,#173,.T.);
#223=ORIENTED_EDGE('',*,*,#175,.F.);
#224=ORIENTED_EDGE('',*,*,#176,.F.);
#225=ORIENTED_EDGE('',*,*,#177,.F.);
#226=ORIENTED_EDGE('',*,*,#176,.T.);
#227=ORIENTED_EDGE('',*,*,#178,.F.);
#228=ORIENTED_EDGE('',*,*,#179,.F.);
#229=ORIENTED_EDGE('',*,*,#166,.T.);
#230=ORIENTED_EDGE('',*,*,#180,.F.);
#231=ORIENTED_EDGE('',*,*,#179,.T.);
#232=ORIENTED_EDGE('',*,*,#181,.F.);
#233=ORIENTED_EDGE('',*,*,#171,.F.);
#234=ORIENTED_EDGE('',*,*,#181,.T.);
#235=ORIENTED_EDGE('',*,*,#178,.T.);
#236=ORIENTED_EDGE('',*,*,#175,.T.);
#237=ORIENTED_EDGE('',*,*,#172,.T.);
#238=ORIENTED_EDGE('',*,*,#182,.T.);
#239=ORIENTED_EDGE('',*,*,#183,.T.);
#240=ORIENTED_EDGE('',*,*,#184,.F.);
#241=ORIENTED_EDGE('',*,*,#185,.F.);
#242=ORIENTED_EDGE('',*,*,#186,.T.);
#243=ORIENTED_EDGE('',*,*,#185,.T.);
#244=ORIENTED_EDGE('',*,*,#187,.F.);
#245=ORIENTED_EDGE('',*,*,#188,.F.);
#246=ORIENTED_EDGE('',*,*,#189,.T.);
#247=ORIENTED_EDGE('',*,*,#188,.T.);
#248=ORIENTED_EDGE('',*,*,#190,.F.);
#249=ORIENTED_EDGE('',*,*,#191,.F.);
#250=ORIENTED_EDGE('',*,*,#192,.T.);
#251=ORIENTED_EDGE('',*,*,#191,.T.);
#252=ORIENTED_EDGE('',*,*,#193,.F.);
#253=ORIENTED_EDGE('',*,*,#183,.F.);
#254=ORIENTED_EDGE('',*,*,#193,.T.);
#255=ORIENTED_EDGE('',*,*,#190,.T.);
#256=ORIENTED_EDGE('',*,*,#187,.T.);
#257=ORIENTED_EDGE('',*,*,#184,.T.);
#258=ORIENTED_EDGE('',*,*,#170,.T.);
#259=ORIENTED_EDGE('',*,*,#174,.T.);
#260=ORIENTED_EDGE('',*,*,#177,.T.);
#261=ORIENTED_EDGE('',*,*,#180,.T.);
#262=ORIENTED_EDGE('',*,*,#192,.F.);
#263=ORIENTED_EDGE('',*,*,#182,.F.);
#264=ORIENTED_EDGE('',*,*,#186,.F.);
#265=ORIENTED_EDGE('',*,*,#189,.F.);
#266=CONICAL_SURFACE('',#301,1.0585,1.02974425867665);
#267=CONICAL_SURFACE('',#303,2.5585,0.785398163397448);
#268=CONICAL_SURFACE('',#307,1.0585,1.02974425867665);
#269=CONICAL_SURFACE('',#309,2.5585,0.785398163397448);
#270=ADVANCED_FACE('',(#31),#266,.F.);
#271=ADVANCED_FACE('',(#32),#267,.F.);
#272=ADVANCED_FACE('',(#33),#29,.F.);
#273=ADVANCED_FACE('',(#34),#268,.F.);
#274=ADVANCED_FACE('',(#35),#269,.F.);
#275=ADVANCED_FACE('',(#36),#30,.F.);
#276=ADVANCED_FACE('',(#37,#15),#18,.T.);
#277=ADVANCED_FACE('',(#38),#19,.T.);
#278=ADVANCED_FACE('',(#39,#16),#20,.T.);
#279=ADVANCED_FACE('',(#40),#21,.T.);
#280=ADVANCED_FACE('',(#41),#22,.T.);
#281=ADVANCED_FACE('',(#42),#23,.T.);
#282=ADVANCED_FACE('',(#43),#24,.T.);
#283=ADVANCED_FACE('',(#44),#25,.T.);
#284=ADVANCED_FACE('',(#45),#26,.T.);
#285=ADVANCED_FACE('',(#46,#17),#27,.T.);
#286=ADVANCED_FACE('',(#47),#28,.F.);
#287=CLOSED_SHELL('',(#270,#271,#272,#273,#274,#275,#276,#277,#278,#279,
#280,#281,#282,#283,#284,#285,#286));
#288=DERIVED_UNIT_ELEMENT(#290,1.);
#289=DERIVED_UNIT_ELEMENT(#485,-3.);
#290=(
MASS_UNIT()
NAMED_UNIT(*)
SI_UNIT(.KILO.,.GRAM.)
);
#291=DERIVED_UNIT((#288,#289));
#292=MEASURE_REPRESENTATION_ITEM('density measure',
POSITIVE_RATIO_MEASURE(7850.),#291);
#293=PROPERTY_DEFINITION_REPRESENTATION(#298,#295);
#294=PROPERTY_DEFINITION_REPRESENTATION(#299,#296);
#295=REPRESENTATION('material name',(#297),#482);
#296=REPRESENTATION('density',(#292),#482);
#297=DESCRIPTIVE_REPRESENTATION_ITEM('Acier','Acier');
#298=PROPERTY_DEFINITION('material property','material name',#492);
#299=PROPERTY_DEFINITION('material property','density of part',#492);
#300=AXIS2_PLACEMENT_3D('',#402,#324,#325);
#301=AXIS2_PLACEMENT_3D('',#403,#326,#327);
#302=AXIS2_PLACEMENT_3D('',#405,#328,#329);
#303=AXIS2_PLACEMENT_3D('',#408,#331,#332);
#304=AXIS2_PLACEMENT_3D('',#410,#333,#334);
#305=AXIS2_PLACEMENT_3D('',#413,#336,#337);
#306=AXIS2_PLACEMENT_3D('',#414,#338,#339);
#307=AXIS2_PLACEMENT_3D('',#416,#341,#342);
#308=AXIS2_PLACEMENT_3D('',#418,#343,#344);
#309=AXIS2_PLACEMENT_3D('',#421,#346,#347);
#310=AXIS2_PLACEMENT_3D('',#423,#348,#349);
#311=AXIS2_PLACEMENT_3D('',#426,#351,#352);
#312=AXIS2_PLACEMENT_3D('',#427,#353,#354);
#313=AXIS2_PLACEMENT_3D('',#429,#356,#357);
#314=AXIS2_PLACEMENT_3D('',#438,#362,#363);
#315=AXIS2_PLACEMENT_3D('',#444,#367,#368);
#316=AXIS2_PLACEMENT_3D('',#450,#372,#373);
#317=AXIS2_PLACEMENT_3D('',#453,#376,#377);
#318=AXIS2_PLACEMENT_3D('',#454,#378,#379);
#319=AXIS2_PLACEMENT_3D('',#463,#384,#385);
#320=AXIS2_PLACEMENT_3D('',#469,#389,#390);
#321=AXIS2_PLACEMENT_3D('',#475,#394,#395);
#322=AXIS2_PLACEMENT_3D('',#478,#398,#399);
#323=AXIS2_PLACEMENT_3D('',#479,#400,#401);
#324=DIRECTION('axis',(0.,0.,1.));
#325=DIRECTION('refdir',(1.,0.,0.));
#326=DIRECTION('center_axis',(1.,0.,0.));
#327=DIRECTION('ref_axis',(0.,1.,0.));
#328=DIRECTION('center_axis',(-1.,0.,0.));
#329=DIRECTION('ref_axis',(0.,1.,0.));
#330=DIRECTION('',(-0.515038074910054,0.857167300702112,-1.04972719113862E-16));
#331=DIRECTION('center_axis',(1.,0.,0.));
#332=DIRECTION('ref_axis',(0.,1.,0.));
#333=DIRECTION('center_axis',(-1.,0.,0.));
#334=DIRECTION('ref_axis',(0.,1.,0.));
#335=DIRECTION('',(-0.707106781186548,0.707106781186547,-8.65956056235493E-17));
#336=DIRECTION('center_axis',(-1.,0.,0.));
#337=DIRECTION('ref_axis',(0.,1.,0.));
#338=DIRECTION('center_axis',(-1.,0.,0.));
#339=DIRECTION('ref_axis',(0.,1.,0.));
#340=DIRECTION('',(-1.,0.,0.));
#341=DIRECTION('center_axis',(-1.,0.,0.));
#342=DIRECTION('ref_axis',(0.,-1.,0.));
#343=DIRECTION('center_axis',(1.,0.,0.));
#344=DIRECTION('ref_axis',(0.,-1.,0.));
#345=DIRECTION('',(0.515038074910054,-0.857167300702112,-1.04972719113862E-16));
#346=DIRECTION('center_axis',(-1.,0.,0.));
#347=DIRECTION('ref_axis',(0.,-1.,0.));
#348=DIRECTION('center_axis',(1.,0.,0.));
#349=DIRECTION('ref_axis',(0.,-1.,0.));
#350=DIRECTION('',(0.707106781186548,-0.707106781186547,-8.65956056235493E-17));
#351=DIRECTION('center_axis',(1.,0.,0.));
#352=DIRECTION('ref_axis',(0.,-1.,0.));
#353=DIRECTION('center_axis',(1.,0.,0.));
#354=DIRECTION('ref_axis',(0.,-1.,0.));
#355=DIRECTION('',(1.,0.,0.));
#356=DIRECTION('center_axis',(1.,0.,0.));
#357=DIRECTION('ref_axis',(0.,1.,0.));
#358=DIRECTION('',(0.,-1.,0.));
#359=DIRECTION('',(0.,0.,1.));
#360=DIRECTION('',(0.,1.,0.));
#361=DIRECTION('',(0.,0.,1.));
#362=DIRECTION('center_axis',(0.,-1.,0.));
#363=DIRECTION('ref_axis',(1.,0.,0.));
#364=DIRECTION('',(-1.,0.,0.));
#365=DIRECTION('',(1.,0.,0.));
#366=DIRECTION('',(0.,0.,1.));
#367=DIRECTION('center_axis',(-1.,0.,0.));
#368=DIRECTION('ref_axis',(0.,-1.,0.));
#369=DIRECTION('',(0.,1.,0.));
#370=DIRECTION('',(0.,-1.,0.));
#371=DIRECTION('',(0.,0.,1.));
#372=DIRECTION('center_axis',(0.,1.,0.));
#373=DIRECTION('ref_axis',(-1.,0.,0.));
#374=DIRECTION('',(1.,0.,0.));
#375=DIRECTION('',(-1.,0.,0.));
#376=DIRECTION('center_axis',(0.,0.,1.));
#377=DIRECTION('ref_axis',(1.,0.,0.));
#378=DIRECTION('center_axis',(0.,1.,0.));
#379=DIRECTION('ref_axis',(-1.,0.,0.));
#380=DIRECTION('',(-1.,0.,0.));
#381=DIRECTION('',(0.,0.,1.));
#382=DIRECTION('',(-1.,0.,0.));
#383=DIRECTION('',(0.,0.,1.));
#384=DIRECTION('center_axis',(1.,0.,0.));
#385=DIRECTION('ref_axis',(0.,1.,0.));
#386=DIRECTION('',(0.,1.,0.));
#387=DIRECTION('',(0.,1.,0.));
#388=DIRECTION('',(0.,0.,1.));
#389=DIRECTION('center_axis',(-1.02716263700653E-33,-1.,0.));
#390=DIRECTION('ref_axis',(1.,-1.02716263700653E-33,0.));
#391=DIRECTION('',(1.,-1.02716263700653E-33,0.));
#392=DIRECTION('',(1.,-1.02716263700653E-33,0.));
#393=DIRECTION('',(0.,0.,1.));
#394=DIRECTION('center_axis',(-1.,0.,0.));
#395=DIRECTION('ref_axis',(0.,-1.,0.));
#396=DIRECTION('',(0.,-1.,0.));
#397=DIRECTION('',(0.,-1.,0.));
#398=DIRECTION('center_axis',(0.,0.,1.));
#399=DIRECTION('ref_axis',(1.,0.,0.));
#400=DIRECTION('center_axis',(0.,0.,1.));
#401=DIRECTION('ref_axis',(1.,0.,0.));
#402=CARTESIAN_POINT('',(0.,0.,0.));
#403=CARTESIAN_POINT('Origin',(101.363989034759,50.,8.5));
#404=CARTESIAN_POINT('',(102.,47.883,8.5));
#405=CARTESIAN_POINT('Origin',(102.,50.,8.5));
#406=CARTESIAN_POINT('',(100.727978069519,50.,8.5));
#407=CARTESIAN_POINT('',(101.363989034759,48.9415,8.5));
#408=CARTESIAN_POINT('Origin',(114.5585,50.,8.5));
#409=CARTESIAN_POINT('',(115.,47.,8.5));
#410=CARTESIAN_POINT('Origin',(115.,50.,8.5));
#411=CARTESIAN_POINT('',(114.117,47.883,8.5));
#412=CARTESIAN_POINT('',(114.5585,47.4415,8.5));
#413=CARTESIAN_POINT('Origin',(114.117,50.,8.5));
#414=CARTESIAN_POINT('Origin',(108.5,50.,8.5));
#415=CARTESIAN_POINT('',(108.5,47.883,8.5));
#416=CARTESIAN_POINT('Origin',(18.6360109652407,50.,8.5));
#417=CARTESIAN_POINT('',(18.,52.117,8.5));
#418=CARTESIAN_POINT('Origin',(18.,50.,8.5));
#419=CARTESIAN_POINT('',(19.2720219304813,50.,8.5));
#420=CARTESIAN_POINT('',(18.6360109652407,51.0585,8.5));
#421=CARTESIAN_POINT('Origin',(5.4415,50.,8.5));
#422=CARTESIAN_POINT('',(5.,53.,8.5));
#423=CARTESIAN_POINT('Origin',(5.,50.,8.5));
#424=CARTESIAN_POINT('',(5.883,52.117,8.5));
#425=CARTESIAN_POINT('',(5.4415,52.5585,8.5));
#426=CARTESIAN_POINT('Origin',(5.883,50.,8.5));
#427=CARTESIAN_POINT('Origin',(11.5,50.,8.5));
#428=CARTESIAN_POINT('',(11.5,52.117,8.5));
#429=CARTESIAN_POINT('Origin',(115.,5.,3.5));
#430=CARTESIAN_POINT('',(115.,95.,3.5));
#431=CARTESIAN_POINT('',(115.,5.,3.5));
#432=CARTESIAN_POINT('',(115.,27.5,3.5));
#433=CARTESIAN_POINT('',(115.,95.,13.5));
#434=CARTESIAN_POINT('',(115.,95.,3.5));
#435=CARTESIAN_POINT('',(115.,5.,13.5));
#436=CARTESIAN_POINT('',(115.,95.,13.5));
#437=CARTESIAN_POINT('',(115.,5.,3.5));
#438=CARTESIAN_POINT('Origin',(5.,5.,3.5));
#439=CARTESIAN_POINT('',(5.,5.,3.5));
#440=CARTESIAN_POINT('',(32.5,5.,3.5));
#441=CARTESIAN_POINT('',(5.,5.,13.5));
#442=CARTESIAN_POINT('',(115.,5.,13.5));
#443=CARTESIAN_POINT('',(5.,5.,3.5));
#444=CARTESIAN_POINT('Origin',(5.,95.,3.5));
#445=CARTESIAN_POINT('',(5.,95.,3.5));
#446=CARTESIAN_POINT('',(5.,72.5,3.5));
#447=CARTESIAN_POINT('',(5.,95.,13.5));
#448=CARTESIAN_POINT('',(5.,5.,13.5));
#449=CARTESIAN_POINT('',(5.,95.,3.5));
#450=CARTESIAN_POINT('Origin',(115.,95.,3.5));
#451=CARTESIAN_POINT('',(87.5,95.,3.5));
#452=CARTESIAN_POINT('',(5.,95.,13.5));
#453=CARTESIAN_POINT('Origin',(60.,50.,13.5));
#454=CARTESIAN_POINT('Origin',(120.,100.,0.));
#455=CARTESIAN_POINT('',(120.,100.,0.));
#456=CARTESIAN_POINT('',(0.,100.,0.));
#457=CARTESIAN_POINT('',(120.,100.,0.));
#458=CARTESIAN_POINT('',(0.,100.,3.5));
#459=CARTESIAN_POINT('',(0.,100.,0.));
#460=CARTESIAN_POINT('',(120.,100.,3.5));
#461=CARTESIAN_POINT('',(120.,100.,3.5));
#462=CARTESIAN_POINT('',(120.,100.,0.));
#463=CARTESIAN_POINT('Origin',(120.,-1.23259516440783E-31,0.));
#464=CARTESIAN_POINT('',(120.,-1.23259516440783E-31,0.));
#465=CARTESIAN_POINT('',(120.,-1.23259516440783E-31,0.));
#466=CARTESIAN_POINT('',(120.,0.,3.5));
#467=CARTESIAN_POINT('',(120.,-1.23259516440783E-31,3.5));
#468=CARTESIAN_POINT('',(120.,-1.23259516440783E-31,0.));
#469=CARTESIAN_POINT('Origin',(0.,0.,0.));
#470=CARTESIAN_POINT('',(0.,0.,0.));
#471=CARTESIAN_POINT('',(0.,0.,0.));
#472=CARTESIAN_POINT('',(0.,0.,3.5));
#473=CARTESIAN_POINT('',(0.,0.,3.5));
#474=CARTESIAN_POINT('',(0.,0.,0.));
#475=CARTESIAN_POINT('Origin',(0.,100.,0.));
#476=CARTESIAN_POINT('',(0.,100.,0.));
#477=CARTESIAN_POINT('',(0.,100.,3.5));
#478=CARTESIAN_POINT('Origin',(60.,50.,3.5));
#479=CARTESIAN_POINT('Origin',(60.,50.,0.));
#480=UNCERTAINTY_MEASURE_WITH_UNIT(LENGTH_MEASURE(0.01),#484,
'DISTANCE_ACCURACY_VALUE',
'Maximum model space distance between geometric entities at asserted c
onnectivities');
#481=UNCERTAINTY_MEASURE_WITH_UNIT(LENGTH_MEASURE(0.01),#484,
'DISTANCE_ACCURACY_VALUE',
'Maximum model space distance between geometric entities at asserted c
onnectivities');
#482=(
GEOMETRIC_REPRESENTATION_CONTEXT(3)
GLOBAL_UNCERTAINTY_ASSIGNED_CONTEXT((#480))
GLOBAL_UNIT_ASSIGNED_CONTEXT((#484,#486,#487))
REPRESENTATION_CONTEXT('','3D')
);
#483=(
GEOMETRIC_REPRESENTATION_CONTEXT(3)
GLOBAL_UNCERTAINTY_ASSIGNED_CONTEXT((#481))
GLOBAL_UNIT_ASSIGNED_CONTEXT((#484,#486,#487))
REPRESENTATION_CONTEXT('','3D')
);
#484=(
LENGTH_UNIT()
NAMED_UNIT(*)
SI_UNIT(.MILLI.,.METRE.)
);
#485=(
LENGTH_UNIT()
NAMED_UNIT(*)
SI_UNIT($,.METRE.)
);
#486=(
NAMED_UNIT(*)
PLANE_ANGLE_UNIT()
SI_UNIT($,.RADIAN.)
);
#487=(
NAMED_UNIT(*)
SI_UNIT($,.STERADIAN.)
SOLID_ANGLE_UNIT()
);
#488=SHAPE_DEFINITION_REPRESENTATION(#489,#490);
#489=PRODUCT_DEFINITION_SHAPE('',$,#492);
#490=SHAPE_REPRESENTATION('',(#300),#482);
#491=PRODUCT_DEFINITION_CONTEXT('part definition',#496,'design');
#492=PRODUCT_DEFINITION('BottomDMXInterface','BottomDMXInterface v2',#493,
#491);
#493=PRODUCT_DEFINITION_FORMATION('',$,#498);
#494=PRODUCT_RELATED_PRODUCT_CATEGORY('BottomDMXInterface v2',
'BottomDMXInterface v2',(#498));
#495=APPLICATION_PROTOCOL_DEFINITION('international standard',
'automotive_design',2009,#496);
#496=APPLICATION_CONTEXT(
'Core Data for Automotive Mechanical Design Process');
#497=PRODUCT_CONTEXT('part definition',#496,'mechanical');
#498=PRODUCT('BottomDMXInterface','BottomDMXInterface v2',$,(#497));
#499=PRESENTATION_STYLE_ASSIGNMENT((#500));
#500=SURFACE_STYLE_USAGE(.BOTH.,#501);
#501=SURFACE_SIDE_STYLE('',(#502));
#502=SURFACE_STYLE_FILL_AREA(#503);
#503=FILL_AREA_STYLE('Acier - Satin\X\E9',(#504));
#504=FILL_AREA_STYLE_COLOUR('Acier - Satin\X\E9',#505);
#505=COLOUR_RGB('Acier - Satin\X\E9',0.627450980392157,0.627450980392157,
0.627450980392157);
ENDSEC;
END-ISO-10303-21;
